{
	"asset":{
		"generator":"Khronos glTF Blender I/O v4.1.63",
		"version":"2.0"
	},
	"scene":0,
	"scenes":[
		{
			"name":"Scene",
			"nodes":[
				0,
				1,
				2,
				3,
				4,
				5,
				6,
				7,
				8,
				9
			]
		}
	],
	"nodes":[
		{
			"mesh":0,
			"name":"suspension"
		},
		{
			"mesh":1,
			"name":"chassis",
			"scale":[
				0.1306740939617157,
				0.1306740939617157,
				0.1306740939617157
			],
			"translation":[
				0,
				0.4610240161418915,
				0.871425449848175
			]
		},
		{
			"mesh":2,
			"name":"floor",
			"translation":[
				0,
				0.4609740376472473,
				0.871425449848175
			]
		},
		{
			"mesh":3,
			"name":"frontWheel_L",
			"rotation":[
				0,
				0,
				0.026176949962973595,
				0.9996573328971863
			],
			"translation":[
				0.7499405741691589,
				0.3338010907173157,
				1.2591968774795532
			]
		},
		{
			"mesh":4,
			"name":"frontWheel_R",
			"rotation":[
				-0.026176949962973595,
				-0.9996573328971863,
				0,
				4.3695791873687995e-08
			],
			"translation":[
				-0.7499410510063171,
				0.3338010907173157,
				1.2591968774795532
			]
		},
		{
			"mesh":5,
			"name":"rearWheel_L",
			"rotation":[
				0,
				0,
				0.026176949962973595,
				0.9996573328971863
			],
			"translation":[
				0.6683459877967834,
				0.3335433900356293,
				-1.782055139541626
			]
		},
		{
			"mesh":6,
			"name":"rearWheel_R",
			"rotation":[
				-0.026176949962973595,
				-0.9996573328971863,
				0,
				4.3695791873687995e-08
			],
			"translation":[
				-0.6683460474014282,
				0.3335433900356293,
				-1.782055139541626
			]
		},
		{
			"mesh":7,
			"name":"wings",
			"translation":[
				0,
				0.9236704707145691,
				-1.9677700996398926
			]
		},
		{
			"mesh":8,
			"name":"steeringWheel",
			"translation":[
				0,
				0.5408101081848145,
				0.6164636611938477
			]
		},
		{
			"mesh":9,
			"name":"appliances.001",
			"rotation":[
				-0.06845523416996002,
				0,
				0,
				0.9976541996002197
			],
			"scale":[
				0.5987944602966309,
				0.9023734331130981,
				0.9023734331130981
			],
			"translation":[
				0,
				0.8238397240638733,
				-1.8998788595199585
			]
		}
	],
	"materials":[
		{
			"doubleSided":true,
			"name":"suspension",
			"pbrMetallicRoughness":{
				"baseColorTexture":{
					"index":0
				}
			}
		},
		{
			"doubleSided":true,
			"name":"chassis",
			"pbrMetallicRoughness":{
				"baseColorTexture":{
					"index":1
				}
			}
		},
		{
			"doubleSided":true,
			"name":"floor",
			"pbrMetallicRoughness":{
				"baseColorTexture":{
					"index":2
				}
			}
		},
		{
			"doubleSided":true,
			"name":"frontWheel",
			"pbrMetallicRoughness":{
				"baseColorTexture":{
					"index":3
				}
			}
		},
		{
			"doubleSided":true,
			"name":"rearWheel",
			"pbrMetallicRoughness":{
				"baseColorTexture":{
					"index":4
				}
			}
		},
		{
			"doubleSided":true,
			"name":"wings",
			"pbrMetallicRoughness":{
				"baseColorTexture":{
					"index":5
				}
			}
		},
		{
			"doubleSided":true,
			"emissiveFactor":[
				1,
				1,
				1
			],
			"name":"steeringWheel",
			"pbrMetallicRoughness":{
				"baseColorTexture":{
					"index":6
				}
			}
		},
		{
			"doubleSided":true,
			"name":"appliances.001",
			"pbrMetallicRoughness":{
				"baseColorTexture":{
					"index":7
				}
			}
		}
	],
	"meshes":[
		{
			"name":"Suspension",
			"primitives":[
				{
					"attributes":{
						"POSITION":0,
						"NORMAL":1,
						"TEXCOORD_0":2
					},
					"indices":3,
					"material":0
				}
			]
		},
		{
			"name":"Cube.004",
			"primitives":[
				{
					"attributes":{
						"POSITION":4,
						"NORMAL":5,
						"TEXCOORD_0":6
					},
					"indices":7,
					"material":1
				}
			]
		},
		{
			"name":"Cube.006",
			"primitives":[
				{
					"attributes":{
						"POSITION":8,
						"NORMAL":9,
						"TEXCOORD_0":10
					},
					"indices":11,
					"material":2
				}
			]
		},
		{
			"name":"Roundcube",
			"primitives":[
				{
					"attributes":{
						"POSITION":12,
						"NORMAL":13,
						"TEXCOORD_0":14
					},
					"indices":15,
					"material":3
				}
			]
		},
		{
			"name":"Roundcube.004",
			"primitives":[
				{
					"attributes":{
						"POSITION":16,
						"NORMAL":17,
						"TEXCOORD_0":18
					},
					"indices":15,
					"material":3
				}
			]
		},
		{
			"name":"Wheels_WCaps.002",
			"primitives":[
				{
					"attributes":{
						"POSITION":19,
						"NORMAL":20,
						"TEXCOORD_0":21
					},
					"indices":22,
					"material":4
				}
			]
		},
		{
			"name":"Wheels_WCaps.004",
			"primitives":[
				{
					"attributes":{
						"POSITION":23,
						"NORMAL":24,
						"TEXCOORD_0":25
					},
					"indices":22,
					"material":4
				}
			]
		},
		{
			"name":"Plane.002",
			"primitives":[
				{
					"attributes":{
						"POSITION":26,
						"NORMAL":27,
						"TEXCOORD_0":28
					},
					"indices":29,
					"material":5
				}
			]
		},
		{
			"name":"Plane.001",
			"primitives":[
				{
					"attributes":{
						"POSITION":30,
						"NORMAL":31,
						"TEXCOORD_0":32
					},
					"indices":33,
					"material":6
				}
			]
		},
		{
			"name":"Roundcube.001",
			"primitives":[
				{
					"attributes":{
						"POSITION":34,
						"NORMAL":35,
						"TEXCOORD_0":36
					},
					"indices":37,
					"material":7
				}
			]
		}
	],
	"textures":[
		{
			"sampler":0,
			"source":0
		},
		{
			"sampler":0,
			"source":1
		},
		{
			"sampler":0,
			"source":2
		},
		{
			"sampler":0,
			"source":3
		},
		{
			"sampler":0,
			"source":4
		},
		{
			"sampler":0,
			"source":5
		},
		{
			"sampler":0,
			"source":6
		},
		{
			"sampler":0,
			"source":7
		}
	],
	"images":[
		{
			"mimeType":"image/png",
			"name":"suspension_Base_color",
			"uri":"suspension_Base_color.png"
		},
		{
			"mimeType":"image/png",
			"name":"chassis-2",
			"uri":"chassis-2.png"
		},
		{
			"mimeType":"image/png",
			"name":"floor_Base_color",
			"uri":"floor_Base_color.png"
		},
		{
			"mimeType":"image/png",
			"name":"frontWheel_Base_color",
			"uri":"frontWheel_Base_color.png"
		},
		{
			"mimeType":"image/png",
			"name":"rearWheel_Base_color",
			"uri":"rearWheel_Base_color.png"
		},
		{
			"mimeType":"image/png",
			"name":"wings",
			"uri":"wings.png"
		},
		{
			"mimeType":"image/png",
			"name":"F122_reTopo_v10_toSubs_20211009_steeringWh",
			"uri":"F122_reTopo_v10_toSubs_20211009_steeringWh.png"
		},
		{
			"mimeType":"image/png",
			"name":"appliances",
			"uri":"appliances.png"
		}
	],
	"accessors":[
		{
			"bufferView":0,
			"componentType":5126,
			"count":4623,
			"max":[
				0.6291091442108154,
				0.7105496525764465,
				1.5117402076721191
			],
			"min":[
				-0.6291091442108154,
				0.05641524866223335,
				-1.9243905544281006
			],
			"type":"VEC3"
		},
		{
			"bufferView":1,
			"componentType":5126,
			"count":4623,
			"type":"VEC3"
		},
		{
			"bufferView":2,
			"componentType":5126,
			"count":4623,
			"type":"VEC2"
		},
		{
			"bufferView":3,
			"componentType":5123,
			"count":20298,
			"type":"SCALAR"
		},
		{
			"bufferView":4,
			"componentType":5126,
			"count":14768,
			"max":[
				5.504147529602051,
				3.402064085006714,
				11.112180709838867
			],
			"min":[
				-5.504147529602051,
				-2.968425989151001,
				-23.75286102294922
			],
			"type":"VEC3"
		},
		{
			"bufferView":5,
			"componentType":5126,
			"count":14768,
			"type":"VEC3"
		},
		{
			"bufferView":6,
			"componentType":5126,
			"count":14768,
			"type":"VEC2"
		},
		{
			"bufferView":7,
			"componentType":5123,
			"count":68892,
			"type":"SCALAR"
		},
		{
			"bufferView":8,
			"componentType":5126,
			"count":5142,
			"max":[
				0.719249427318573,
				0.12344317883253098,
				-0.0018831492634490132
			],
			"min":[
				-0.719249427318573,
				-0.39152055978775024,
				-2.362093210220337
			],
			"type":"VEC3"
		},
		{
			"bufferView":9,
			"componentType":5126,
			"count":5142,
			"type":"VEC3"
		},
		{
			"bufferView":10,
			"componentType":5126,
			"count":5142,
			"type":"VEC2"
		},
		{
			"bufferView":11,
			"componentType":5123,
			"count":21420,
			"type":"SCALAR"
		},
		{
			"bufferView":12,
			"componentType":5126,
			"count":11530,
			"max":[
				0.12641486525535583,
				0.32046934962272644,
				0.3204728066921234
			],
			"min":[
				-0.21179699897766113,
				-0.3204720616340637,
				-0.32046806812286377
			],
			"type":"VEC3"
		},
		{
			"bufferView":13,
			"componentType":5126,
			"count":11530,
			"type":"VEC3"
		},
		{
			"bufferView":14,
			"componentType":5126,
			"count":11530,
			"type":"VEC2"
		},
		{
			"bufferView":15,
			"componentType":5123,
			"count":47016,
			"type":"SCALAR"
		},
		{
			"bufferView":16,
			"componentType":5126,
			"count":11530,
			"max":[
				0.12641486525535583,
				0.32046934962272644,
				0.3204728066921234
			],
			"min":[
				-0.21179699897766113,
				-0.3204720616340637,
				-0.32046806812286377
			],
			"type":"VEC3"
		},
		{
			"bufferView":17,
			"componentType":5126,
			"count":11530,
			"type":"VEC3"
		},
		{
			"bufferView":18,
			"componentType":5126,
			"count":11530,
			"type":"VEC2"
		},
		{
			"bufferView":19,
			"componentType":5126,
			"count":13461,
			"max":[
				0.19001896679401398,
				0.3204744756221771,
				0.32046616077423096
			],
			"min":[
				-0.21903614699840546,
				-0.32046690583229065,
				-0.3204747438430786
			],
			"type":"VEC3"
		},
		{
			"bufferView":20,
			"componentType":5126,
			"count":13461,
			"type":"VEC3"
		},
		{
			"bufferView":21,
			"componentType":5126,
			"count":13461,
			"type":"VEC2"
		},
		{
			"bufferView":22,
			"componentType":5123,
			"count":54696,
			"type":"SCALAR"
		},
		{
			"bufferView":23,
			"componentType":5126,
			"count":13461,
			"max":[
				0.19001896679401398,
				0.3204744756221771,
				0.32046616077423096
			],
			"min":[
				-0.21903614699840546,
				-0.32046690583229065,
				-0.3204747438430786
			],
			"type":"VEC3"
		},
		{
			"bufferView":24,
			"componentType":5126,
			"count":13461,
			"type":"VEC3"
		},
		{
			"bufferView":25,
			"componentType":5126,
			"count":13461,
			"type":"VEC2"
		},
		{
			"bufferView":26,
			"componentType":5126,
			"count":19435,
			"max":[
				0.8663870692253113,
				-0.03266643360257149,
				4.326128959655762
			],
			"min":[
				-0.8663870692253113,
				-0.8116568922996521,
				-0.2926425337791443
			],
			"type":"VEC3"
		},
		{
			"bufferView":27,
			"componentType":5126,
			"count":19435,
			"type":"VEC3"
		},
		{
			"bufferView":28,
			"componentType":5126,
			"count":19435,
			"type":"VEC2"
		},
		{
			"bufferView":29,
			"componentType":5123,
			"count":98880,
			"type":"SCALAR"
		},
		{
			"bufferView":30,
			"componentType":5126,
			"count":1685,
			"max":[
				0.10911548137664795,
				0.061146434396505356,
				-0.11755001544952393
			],
			"min":[
				-0.10911548137664795,
				-0.06114640459418297,
				-0.25130677223205566
			],
			"type":"VEC3"
		},
		{
			"bufferView":31,
			"componentType":5126,
			"count":1685,
			"type":"VEC3"
		},
		{
			"bufferView":32,
			"componentType":5126,
			"count":1685,
			"type":"VEC2"
		},
		{
			"bufferView":33,
			"componentType":5123,
			"count":6156,
			"type":"SCALAR"
		},
		{
			"bufferView":34,
			"componentType":5126,
			"count":7100,
			"max":[
				1.3935548067092896,
				-8.685886859893799e-05,
				4.416876316070557
			],
			"min":[
				-1.3935548067092896,
				-1.3760465383529663,
				-0.21375073492527008
			],
			"type":"VEC3"
		},
		{
			"bufferView":35,
			"componentType":5126,
			"count":7100,
			"type":"VEC3"
		},
		{
			"bufferView":36,
			"componentType":5126,
			"count":7100,
			"type":"VEC2"
		},
		{
			"bufferView":37,
			"componentType":5123,
			"count":24927,
			"type":"SCALAR"
		}
	],
	"bufferViews":[
		{
			"buffer":0,
			"byteLength":55476,
			"byteOffset":0,
			"target":34962
		},
		{
			"buffer":0,
			"byteLength":55476,
			"byteOffset":55476,
			"target":34962
		},
		{
			"buffer":0,
			"byteLength":36984,
			"byteOffset":110952,
			"target":34962
		},
		{
			"buffer":0,
			"byteLength":40596,
			"byteOffset":147936,
			"target":34963
		},
		{
			"buffer":0,
			"byteLength":177216,
			"byteOffset":188532,
			"target":34962
		},
		{
			"buffer":0,
			"byteLength":177216,
			"byteOffset":365748,
			"target":34962
		},
		{
			"buffer":0,
			"byteLength":118144,
			"byteOffset":542964,
			"target":34962
		},
		{
			"buffer":0,
			"byteLength":137784,
			"byteOffset":661108,
			"target":34963
		},
		{
			"buffer":0,
			"byteLength":61704,
			"byteOffset":798892,
			"target":34962
		},
		{
			"buffer":0,
			"byteLength":61704,
			"byteOffset":860596,
			"target":34962
		},
		{
			"buffer":0,
			"byteLength":41136,
			"byteOffset":922300,
			"target":34962
		},
		{
			"buffer":0,
			"byteLength":42840,
			"byteOffset":963436,
			"target":34963
		},
		{
			"buffer":0,
			"byteLength":138360,
			"byteOffset":1006276,
			"target":34962
		},
		{
			"buffer":0,
			"byteLength":138360,
			"byteOffset":1144636,
			"target":34962
		},
		{
			"buffer":0,
			"byteLength":92240,
			"byteOffset":1282996,
			"target":34962
		},
		{
			"buffer":0,
			"byteLength":94032,
			"byteOffset":1375236,
			"target":34963
		},
		{
			"buffer":0,
			"byteLength":138360,
			"byteOffset":1469268,
			"target":34962
		},
		{
			"buffer":0,
			"byteLength":138360,
			"byteOffset":1607628,
			"target":34962
		},
		{
			"buffer":0,
			"byteLength":92240,
			"byteOffset":1745988,
			"target":34962
		},
		{
			"buffer":0,
			"byteLength":161532,
			"byteOffset":1838228,
			"target":34962
		},
		{
			"buffer":0,
			"byteLength":161532,
			"byteOffset":1999760,
			"target":34962
		},
		{
			"buffer":0,
			"byteLength":107688,
			"byteOffset":2161292,
			"target":34962
		},
		{
			"buffer":0,
			"byteLength":109392,
			"byteOffset":2268980,
			"target":34963
		},
		{
			"buffer":0,
			"byteLength":161532,
			"byteOffset":2378372,
			"target":34962
		},
		{
			"buffer":0,
			"byteLength":161532,
			"byteOffset":2539904,
			"target":34962
		},
		{
			"buffer":0,
			"byteLength":107688,
			"byteOffset":2701436,
			"target":34962
		},
		{
			"buffer":0,
			"byteLength":233220,
			"byteOffset":2809124,
			"target":34962
		},
		{
			"buffer":0,
			"byteLength":233220,
			"byteOffset":3042344,
			"target":34962
		},
		{
			"buffer":0,
			"byteLength":155480,
			"byteOffset":3275564,
			"target":34962
		},
		{
			"buffer":0,
			"byteLength":197760,
			"byteOffset":3431044,
			"target":34963
		},
		{
			"buffer":0,
			"byteLength":20220,
			"byteOffset":3628804,
			"target":34962
		},
		{
			"buffer":0,
			"byteLength":20220,
			"byteOffset":3649024,
			"target":34962
		},
		{
			"buffer":0,
			"byteLength":13480,
			"byteOffset":3669244,
			"target":34962
		},
		{
			"buffer":0,
			"byteLength":12312,
			"byteOffset":3682724,
			"target":34963
		},
		{
			"buffer":0,
			"byteLength":85200,
			"byteOffset":3695036,
			"target":34962
		},
		{
			"buffer":0,
			"byteLength":85200,
			"byteOffset":3780236,
			"target":34962
		},
		{
			"buffer":0,
			"byteLength":56800,
			"byteOffset":3865436,
			"target":34962
		},
		{
			"buffer":0,
			"byteLength":49854,
			"byteOffset":3922236,
			"target":34963
		}
	],
	"samplers":[
		{
			"magFilter":9729,
			"minFilter":9987
		}
	],
	"buffers":[
		{
			"byteLength":3972092,
			"uri":"APEX-2024.bin"
		}
	]
}
